<svg width="95" height="95" viewBox="0 0 95 95" fill="none" xmlns="http://www.w3.org/2000/svg">
<path d="M86.7289 0H7.88444C3.548 0 0 3.548 0 7.88444V86.7289C0 91.0653 3.548 94.6133 7.88444 94.6133H86.7289C91.0653 94.6133 94.6133 91.0653 94.6133 86.7289V7.88444C94.6133 3.548 91.0653 0 86.7289 0Z" fill="#6BACE2"/>
<path d="M61.1046 49.2778L63.0757 39.4222H53.2202V31.5378C53.2202 28.5811 54.7971 27.5955 59.1335 27.5955H63.0757V17.74C63.0757 17.74 59.1335 17.74 55.1913 17.74C47.1097 17.74 41.3935 22.4707 41.3935 31.5378V39.4222H31.538V49.2778H41.3935V76.8733H53.2202V49.2778H61.1046Z" fill="white"/>
</svg>
